<svg  width="18" height="18" viewBox="0 0 18 18" xmlns="http://www.w3.org/2000/svg"><g transform=""><g fill-rule="evenodd"><path d="m17.64 9.2a10.341 10.341 0 0 0 -.164-1.841h-8.476v3.481h4.844a4.14 4.14 0 0 1 -1.8 2.716v2.264h2.909a8.777 8.777 0 0 0 2.687-6.62z" fill="#4285f4"/><path d="m9 18a8.592 8.592 0 0 0 5.956-2.18l-2.909-2.258a5.43 5.43 0 0 1 -8.083-2.852h-3.007v2.332a9 9 0 0 0 8.043 4.958z" fill="#34a853"/><path d="m3.964 10.71a5.321 5.321 0 0 1 0-3.42v-2.332h-3.007a9.011 9.011 0 0 0 0 8.084z" fill="#fbbc05"/><path d="m9 3.58a4.862 4.862 0 0 1 3.44 1.346l2.581-2.581a8.649 8.649 0 0 0 -6.021-2.345 9 9 0 0 0 -8.043 4.958l3.007 2.332a5.364 5.364 0 0 1 5.036-3.71z" fill="#ea4335"/></g><path d="m0 0h18v18h-18z" fill="none"/></g></svg>